<?xml version="1.0" encoding="UTF-8" standalone="no"?>
<!DOCTYPE svg PUBLIC "-//W3C//DTD SVG 1.1//EN"
 "http://www.w3.org/Graphics/SVG/1.1/DTD/svg11.dtd">
<!-- Generated by graphviz version 2.43.0 (0)
 -->
<!-- Title: coffeestate Pages: 1 -->
<svg width="875pt" height="908pt"
 viewBox="0.00 0.00 874.68 908.00" xmlns="http://www.w3.org/2000/svg" xmlns:xlink="http://www.w3.org/1999/xlink">
<g id="graph0" class="graph" transform="scale(1 1) rotate(0) translate(4 904)">
<title>coffeestate</title>
<polygon fill="white" stroke="transparent" points="-4,4 -4,-904 870.68,-904 870.68,4 -4,4"/>
<!-- NONE -->
<g id="node1" class="node">
<title>NONE</title>
<ellipse fill="none" stroke="black" cx="646.49" cy="-810" rx="35.19" ry="18"/>
<text text-anchor="middle" x="646.49" y="-806.3" font-family="Times,serif" font-size="14.00">NONE</text>
</g>
<!-- idle -->
<g id="node2" class="node">
<title>idle</title>
<ellipse fill="none" stroke="black" cx="646.49" cy="-738" rx="27" ry="18"/>
<text text-anchor="middle" x="646.49" y="-734.3" font-family="Times,serif" font-size="14.00">idle</text>
</g>
<!-- NONE&#45;&gt;idle -->
<g id="edge2" class="edge">
<title>NONE&#45;&gt;idle</title>
<path fill="none" stroke="black" d="M646.49,-791.7C646.49,-783.98 646.49,-774.71 646.49,-766.11"/>
<polygon fill="black" stroke="black" points="649.99,-766.1 646.49,-756.1 642.99,-766.1 649.99,-766.1"/>
</g>
<!-- User moved lever to HEAT -->
<g id="node13" class="node">
<title>User moved lever to HEAT</title>
<ellipse fill="none" stroke="black" stroke-dasharray="5,2" cx="431.49" cy="-666" rx="108.58" ry="18"/>
<text text-anchor="middle" x="431.49" y="-662.3" font-family="Times,serif" font-size="14.00">User moved lever to HEAT</text>
</g>
<!-- idle&#45;&gt;User moved lever to HEAT -->
<g id="edge3" class="edge">
<title>idle&#45;&gt;User moved lever to HEAT</title>
<path fill="none" stroke="black" d="M622.66,-729.24C590.44,-718.75 531.97,-699.71 488.15,-685.45"/>
<polygon fill="black" stroke="black" points="489.06,-682.07 478.47,-682.3 486.9,-688.72 489.06,-682.07"/>
</g>
<!-- Temperature is too high -->
<g id="node21" class="node">
<title>Temperature is too high</title>
<ellipse fill="none" stroke="black" stroke-dasharray="5,2" cx="770.49" cy="-666" rx="96.38" ry="18"/>
<text text-anchor="middle" x="770.49" y="-662.3" font-family="Times,serif" font-size="14.00">Temperature is too high</text>
</g>
<!-- idle&#45;&gt;Temperature is too high -->
<g id="edge24" class="edge">
<title>idle&#45;&gt;Temperature is too high</title>
<path fill="none" stroke="black" d="M666.41,-725.75C684.22,-715.7 710.8,-700.69 732.64,-688.36"/>
<polygon fill="black" stroke="black" points="734.38,-691.4 741.37,-683.44 730.94,-685.31 734.38,-691.4"/>
</g>
<!-- heating -->
<g id="node3" class="node">
<title>heating</title>
<ellipse fill="none" stroke="black" cx="346.49" cy="-450" rx="36.29" ry="18"/>
<text text-anchor="middle" x="346.49" y="-446.3" font-family="Times,serif" font-size="14.00">heating</text>
</g>
<!-- Temperature sensor outside sane limits -->
<g id="node16" class="node">
<title>Temperature sensor outside sane limits</title>
<ellipse fill="none" stroke="black" stroke-dasharray="5,2" cx="149.49" cy="-306" rx="149.47" ry="18"/>
<text text-anchor="middle" x="149.49" y="-302.3" font-family="Times,serif" font-size="14.00">Temperature sensor outside sane limits</text>
</g>
<!-- heating&#45;&gt;Temperature sensor outside sane limits -->
<g id="edge9" class="edge">
<title>heating&#45;&gt;Temperature sensor outside sane limits</title>
<path fill="none" stroke="black" d="M320.03,-437.57C298.95,-427.89 269.16,-412.93 245.49,-396 226.56,-382.47 224.52,-375.85 207.49,-360 197.16,-350.4 185.72,-339.91 175.75,-330.81"/>
<polygon fill="black" stroke="black" points="177.86,-328.01 168.11,-323.86 173.15,-333.18 177.86,-328.01"/>
</g>
<!-- Temperature reached for brew -->
<g id="node17" class="node">
<title>Temperature reached for brew</title>
<ellipse fill="none" stroke="black" stroke-dasharray="5,2" cx="372.49" cy="-378" rx="118.08" ry="18"/>
<text text-anchor="middle" x="372.49" y="-374.3" font-family="Times,serif" font-size="14.00">Temperature reached for brew</text>
</g>
<!-- heating&#45;&gt;Temperature reached for brew -->
<g id="edge13" class="edge">
<title>heating&#45;&gt;Temperature reached for brew</title>
<path fill="none" stroke="black" d="M352.78,-432.05C355.71,-424.18 359.26,-414.62 362.53,-405.79"/>
<polygon fill="black" stroke="black" points="365.87,-406.87 366.07,-396.28 359.31,-404.43 365.87,-406.87"/>
</g>
<!-- overheated -->
<g id="node4" class="node">
<title>overheated</title>
<ellipse fill="none" stroke="black" cx="149.49" cy="-378" rx="49.29" ry="18"/>
<text text-anchor="middle" x="149.49" y="-374.3" font-family="Times,serif" font-size="14.00">overheated</text>
</g>
<!-- brewing -->
<g id="node6" class="node">
<title>brewing</title>
<ellipse fill="none" stroke="black" cx="364.49" cy="-306" rx="39.79" ry="18"/>
<text text-anchor="middle" x="364.49" y="-302.3" font-family="Times,serif" font-size="14.00">brewing</text>
</g>
<!-- overheated&#45;&gt;brewing -->
<g id="edge15" class="edge">
<title>overheated&#45;&gt;brewing</title>
<path fill="none" stroke="black" d="M184.99,-365.44C223.03,-353.05 283.34,-333.42 323.41,-320.38"/>
<polygon fill="black" stroke="black" points="324.71,-323.63 333.13,-317.21 322.54,-316.98 324.71,-323.63"/>
</g>
<!-- overheated&#45;&gt;Temperature sensor outside sane limits -->
<g id="edge10" class="edge">
<title>overheated&#45;&gt;Temperature sensor outside sane limits</title>
<path fill="none" stroke="black" d="M149.49,-359.7C149.49,-351.98 149.49,-342.71 149.49,-334.11"/>
<polygon fill="black" stroke="black" points="152.99,-334.1 149.49,-324.1 145.99,-334.1 152.99,-334.1"/>
</g>
<!-- errHEAT -->
<g id="node5" class="node">
<title>errHEAT</title>
<ellipse fill="none" stroke="black" cx="120.49" cy="-162" rx="42.79" ry="18"/>
<text text-anchor="middle" x="120.49" y="-158.3" font-family="Times,serif" font-size="14.00">errHEAT</text>
</g>
<!-- finished -->
<g id="node11" class="node">
<title>finished</title>
<ellipse fill="none" stroke="black" cx="289.49" cy="-90" rx="38.99" ry="18"/>
<text text-anchor="middle" x="289.49" y="-86.3" font-family="Times,serif" font-size="14.00">finished</text>
</g>
<!-- errHEAT&#45;&gt;finished -->
<g id="edge12" class="edge">
<title>errHEAT&#45;&gt;finished</title>
<path fill="none" stroke="black" d="M149.92,-148.81C178.26,-137.07 221.21,-119.28 251.98,-106.53"/>
<polygon fill="black" stroke="black" points="253.61,-109.65 261.51,-102.59 250.93,-103.18 253.61,-109.65"/>
</g>
<!-- Lever turned to OFF while brewing -->
<g id="node18" class="node">
<title>Lever turned to OFF while brewing</title>
<ellipse fill="none" stroke="black" stroke-dasharray="5,2" cx="481.49" cy="-234" rx="137.28" ry="18"/>
<text text-anchor="middle" x="481.49" y="-230.3" font-family="Times,serif" font-size="14.00">Lever turned to OFF while brewing</text>
</g>
<!-- brewing&#45;&gt;Lever turned to OFF while brewing -->
<g id="edge16" class="edge">
<title>brewing&#45;&gt;Lever turned to OFF while brewing</title>
<path fill="none" stroke="black" d="M387.6,-291.17C403.93,-281.4 426.15,-268.11 444.87,-256.91"/>
<polygon fill="black" stroke="black" points="446.68,-259.9 453.47,-251.76 443.09,-253.89 446.68,-259.9"/>
</g>
<!-- Amount of brewing time reached -->
<g id="node19" class="node">
<title>Amount of brewing time reached</title>
<ellipse fill="none" stroke="black" stroke-dasharray="5,2" cx="197.49" cy="-234" rx="129.18" ry="18"/>
<text text-anchor="middle" x="197.49" y="-230.3" font-family="Times,serif" font-size="14.00">Amount of brewing time reached</text>
</g>
<!-- brewing&#45;&gt;Amount of brewing time reached -->
<g id="edge19" class="edge">
<title>brewing&#45;&gt;Amount of brewing time reached</title>
<path fill="none" stroke="black" d="M336.16,-293.13C311.39,-282.74 274.89,-267.44 245.56,-255.15"/>
<polygon fill="black" stroke="black" points="246.88,-251.91 236.31,-251.27 244.18,-258.37 246.88,-251.91"/>
</g>
<!-- stopped -->
<g id="node7" class="node">
<title>stopped</title>
<ellipse fill="none" stroke="black" cx="381.49" cy="-162" rx="38.19" ry="18"/>
<text text-anchor="middle" x="381.49" y="-158.3" font-family="Times,serif" font-size="14.00">stopped</text>
</g>
<!-- stopped&#45;&gt;finished -->
<g id="edge18" class="edge">
<title>stopped&#45;&gt;finished</title>
<path fill="none" stroke="black" d="M361.98,-146.15C348.92,-136.22 331.56,-123.01 317.09,-112.01"/>
<polygon fill="black" stroke="black" points="319.05,-109.09 308.97,-105.82 314.81,-114.66 319.05,-109.09"/>
</g>
<!-- done -->
<g id="node8" class="node">
<title>done</title>
<ellipse fill="none" stroke="black" cx="243.49" cy="-162" rx="27.9" ry="18"/>
<text text-anchor="middle" x="243.49" y="-158.3" font-family="Times,serif" font-size="14.00">done</text>
</g>
<!-- done&#45;&gt;finished -->
<g id="edge21" class="edge">
<title>done&#45;&gt;finished</title>
<path fill="none" stroke="black" d="M253.92,-145.12C259.53,-136.59 266.56,-125.89 272.89,-116.25"/>
<polygon fill="black" stroke="black" points="275.88,-118.08 278.45,-107.8 270.03,-114.23 275.88,-118.08"/>
</g>
<!-- overheating -->
<g id="node9" class="node">
<title>overheating</title>
<ellipse fill="none" stroke="black" cx="770.49" cy="-594" rx="51.99" ry="18"/>
<text text-anchor="middle" x="770.49" y="-590.3" font-family="Times,serif" font-size="14.00">overheating</text>
</g>
<!-- ready -->
<g id="node10" class="node">
<title>ready</title>
<ellipse fill="none" stroke="black" cx="352.49" cy="-594" rx="30.59" ry="18"/>
<text text-anchor="middle" x="352.49" y="-590.3" font-family="Times,serif" font-size="14.00">ready</text>
</g>
<!-- Function brewcoffee triggered -->
<g id="node14" class="node">
<title>Function brewcoffee triggered</title>
<ellipse fill="none" stroke="black" stroke-dasharray="5,2" cx="346.49" cy="-522" rx="118.08" ry="18"/>
<text text-anchor="middle" x="346.49" y="-518.3" font-family="Times,serif" font-size="14.00">Function brewcoffee triggered</text>
</g>
<!-- ready&#45;&gt;Function brewcoffee triggered -->
<g id="edge5" class="edge">
<title>ready&#45;&gt;Function brewcoffee triggered</title>
<path fill="none" stroke="black" d="M351,-575.7C350.34,-567.98 349.55,-558.71 348.81,-550.11"/>
<polygon fill="black" stroke="black" points="352.29,-549.77 347.95,-540.1 345.32,-550.37 352.29,-549.77"/>
</g>
<!-- User moved lever to OFF -->
<g id="node20" class="node">
<title>User moved lever to OFF</title>
<ellipse fill="none" stroke="black" stroke-dasharray="5,2" cx="371.49" cy="-18" rx="102.08" ry="18"/>
<text text-anchor="middle" x="371.49" y="-14.3" font-family="Times,serif" font-size="14.00">User moved lever to OFF</text>
</g>
<!-- finished&#45;&gt;User moved lever to OFF -->
<g id="edge22" class="edge">
<title>finished&#45;&gt;User moved lever to OFF</title>
<path fill="none" stroke="black" d="M307.28,-73.81C318.02,-64.64 331.93,-52.77 344.06,-42.42"/>
<polygon fill="black" stroke="black" points="346.38,-45.03 351.72,-35.88 341.84,-39.71 346.38,-45.03"/>
</g>
<!-- Powered On -->
<g id="node12" class="node">
<title>Powered On</title>
<ellipse fill="none" stroke="black" stroke-dasharray="5,2" cx="646.49" cy="-882" rx="54.69" ry="18"/>
<text text-anchor="middle" x="646.49" y="-878.3" font-family="Times,serif" font-size="14.00">Powered On</text>
</g>
<!-- Powered On&#45;&gt;NONE -->
<g id="edge1" class="edge">
<title>Powered On&#45;&gt;NONE</title>
<path fill="none" stroke="black" d="M646.49,-863.7C646.49,-855.98 646.49,-846.71 646.49,-838.11"/>
<polygon fill="black" stroke="black" points="649.99,-838.1 646.49,-828.1 642.99,-838.1 649.99,-838.1"/>
</g>
<!-- User moved lever to HEAT&#45;&gt;ready -->
<g id="edge4" class="edge">
<title>User moved lever to HEAT&#45;&gt;ready</title>
<path fill="none" stroke="black" d="M412.36,-648.05C401.53,-638.46 387.88,-626.36 376.35,-616.14"/>
<polygon fill="black" stroke="black" points="378.57,-613.44 368.77,-609.42 373.93,-618.68 378.57,-613.44"/>
</g>
<!-- Function brewcoffee triggered&#45;&gt;heating -->
<g id="edge6" class="edge">
<title>Function brewcoffee triggered&#45;&gt;heating</title>
<path fill="none" stroke="black" d="M346.49,-503.7C346.49,-495.98 346.49,-486.71 346.49,-478.11"/>
<polygon fill="black" stroke="black" points="349.99,-478.1 346.49,-468.1 342.99,-478.1 349.99,-478.1"/>
</g>
<!-- Too high heat before brewing -->
<g id="node15" class="node">
<title>Too high heat before brewing</title>
<ellipse fill="none" stroke="black" stroke-dasharray="5,2" cx="162.49" cy="-450" rx="116.18" ry="18"/>
<text text-anchor="middle" x="162.49" y="-446.3" font-family="Times,serif" font-size="14.00">Too high heat before brewing</text>
</g>
<!-- Function brewcoffee triggered&#45;&gt;Too high heat before brewing -->
<g id="edge7" class="edge">
<title>Function brewcoffee triggered&#45;&gt;Too high heat before brewing</title>
<path fill="none" stroke="black" d="M304.73,-505.12C277.68,-494.82 242.26,-481.35 213.54,-470.42"/>
<polygon fill="black" stroke="black" points="214.66,-467.11 204.07,-466.82 212.18,-473.65 214.66,-467.11"/>
</g>
<!-- Too high heat before brewing&#45;&gt;overheated -->
<g id="edge8" class="edge">
<title>Too high heat before brewing&#45;&gt;overheated</title>
<path fill="none" stroke="black" d="M159.27,-431.7C157.84,-423.98 156.12,-414.71 154.52,-406.11"/>
<polygon fill="black" stroke="black" points="157.93,-405.3 152.66,-396.1 151.05,-406.58 157.93,-405.3"/>
</g>
<!-- Temperature sensor outside sane limits&#45;&gt;errHEAT -->
<g id="edge11" class="edge">
<title>Temperature sensor outside sane limits&#45;&gt;errHEAT</title>
<path fill="none" stroke="black" d="M102.35,-288.69C85.77,-280.42 68.94,-268.53 59.49,-252 51.55,-238.11 52.85,-230.56 59.49,-216 65.47,-202.88 76.48,-191.75 87.52,-183.13"/>
<polygon fill="black" stroke="black" points="89.87,-185.75 95.89,-177.03 85.74,-180.09 89.87,-185.75"/>
</g>
<!-- Temperature reached for brew&#45;&gt;brewing -->
<g id="edge14" class="edge">
<title>Temperature reached for brew&#45;&gt;brewing</title>
<path fill="none" stroke="black" d="M370.51,-359.7C369.63,-351.98 368.57,-342.71 367.59,-334.11"/>
<polygon fill="black" stroke="black" points="371.05,-333.64 366.44,-324.1 364.1,-334.44 371.05,-333.64"/>
</g>
<!-- Lever turned to OFF while brewing&#45;&gt;stopped -->
<g id="edge17" class="edge">
<title>Lever turned to OFF while brewing&#45;&gt;stopped</title>
<path fill="none" stroke="black" d="M457.53,-216.23C443.33,-206.29 425.24,-193.63 410.27,-183.15"/>
<polygon fill="black" stroke="black" points="412.07,-180.13 401.87,-177.27 408.05,-185.87 412.07,-180.13"/>
</g>
<!-- Amount of brewing time reached&#45;&gt;done -->
<g id="edge20" class="edge">
<title>Amount of brewing time reached&#45;&gt;done</title>
<path fill="none" stroke="black" d="M208.62,-216.05C214.26,-207.47 221.22,-196.89 227.43,-187.44"/>
<polygon fill="black" stroke="black" points="230.52,-189.11 233.08,-178.83 224.67,-185.26 230.52,-189.11"/>
</g>
<!-- User moved lever to OFF&#45;&gt;idle -->
<g id="edge23" class="edge">
<title>User moved lever to OFF&#45;&gt;idle</title>
<path fill="none" stroke="black" d="M458.12,-27.6C538.73,-40.95 646.49,-74.89 646.49,-161 646.49,-595 646.49,-595 646.49,-595 646.49,-635 646.49,-681.35 646.49,-709.92"/>
<polygon fill="black" stroke="black" points="642.99,-709.95 646.49,-719.95 649.99,-709.95 642.99,-709.95"/>
</g>
<!-- Temperature is too high&#45;&gt;overheating -->
<g id="edge25" class="edge">
<title>Temperature is too high&#45;&gt;overheating</title>
<path fill="none" stroke="black" d="M770.49,-647.7C770.49,-639.98 770.49,-630.71 770.49,-622.11"/>
<polygon fill="black" stroke="black" points="773.99,-622.1 770.49,-612.1 766.99,-622.1 773.99,-622.1"/>
</g>
</g>
</svg>
