<?xml version="1.0" encoding="UTF-8" standalone="no"?>
<!DOCTYPE svg PUBLIC "-//W3C//DTD SVG 1.1//EN"
 "http://www.w3.org/Graphics/SVG/1.1/DTD/svg11.dtd">
<!-- Generated by graphviz version 2.43.0 (0)
 -->
<!-- Title: terraform Pages: 1 -->
<svg width="1235pt" height="620pt"
 viewBox="0.00 0.00 1234.73 620.00" xmlns="http://www.w3.org/2000/svg" xmlns:xlink="http://www.w3.org/1999/xlink">
<g id="graph0" class="graph" transform="scale(1 1) rotate(0) translate(4 616)">
<title>terraform</title>
<polygon fill="white" stroke="transparent" points="-4,4 -4,-616 1230.73,-616 1230.73,4 -4,4"/>
<!-- Bright idea! -->
<g id="node1" class="node">
<title>Bright idea!</title>
<ellipse fill="none" stroke="black" cx="371.13" cy="-594" rx="53.09" ry="18"/>
<text text-anchor="middle" x="371.13" y="-590.3" font-family="Times,serif" font-size="14.00">Bright idea!</text>
</g>
<!-- Start terraform project with a main.tf file -->
<g id="node2" class="node">
<title>Start terraform project with a main.tf file</title>
<ellipse fill="none" stroke="black" cx="371.13" cy="-522" rx="157.07" ry="18"/>
<text text-anchor="middle" x="371.13" y="-518.3" font-family="Times,serif" font-size="14.00">Start terraform project with a main.tf file</text>
</g>
<!-- Bright idea!&#45;&gt;Start terraform project with a main.tf file -->
<g id="edge1" class="edge">
<title>Bright idea!&#45;&gt;Start terraform project with a main.tf file</title>
<path fill="none" stroke="black" d="M371.13,-575.7C371.13,-567.98 371.13,-558.71 371.13,-550.11"/>
<polygon fill="black" stroke="black" points="374.63,-550.1 371.13,-540.1 367.63,-550.1 374.63,-550.1"/>
</g>
<!-- Run &#39;terraform init&#39; -->
<g id="node3" class="node">
<title>Run &#39;terraform init&#39;</title>
<ellipse fill="none" stroke="black" cx="371.13" cy="-450" rx="78.79" ry="18"/>
<text text-anchor="middle" x="371.13" y="-446.3" font-family="Times,serif" font-size="14.00">Run &#39;terraform init&#39;</text>
</g>
<!-- Start terraform project with a main.tf file&#45;&gt;Run &#39;terraform init&#39; -->
<g id="edge2" class="edge">
<title>Start terraform project with a main.tf file&#45;&gt;Run &#39;terraform init&#39;</title>
<path fill="none" stroke="black" d="M371.13,-503.7C371.13,-495.98 371.13,-486.71 371.13,-478.11"/>
<polygon fill="black" stroke="black" points="374.63,-478.1 371.13,-468.1 367.63,-478.1 374.63,-478.1"/>
</g>
<!-- Write some stuff -->
<g id="node4" class="node">
<title>Write some stuff</title>
<ellipse fill="none" stroke="black" cx="371.13" cy="-378" rx="70.69" ry="18"/>
<text text-anchor="middle" x="371.13" y="-374.3" font-family="Times,serif" font-size="14.00">Write some stuff</text>
</g>
<!-- Run &#39;terraform init&#39;&#45;&gt;Write some stuff -->
<g id="edge3" class="edge">
<title>Run &#39;terraform init&#39;&#45;&gt;Write some stuff</title>
<path fill="none" stroke="black" d="M371.13,-431.7C371.13,-423.98 371.13,-414.71 371.13,-406.11"/>
<polygon fill="black" stroke="black" points="374.63,-406.1 371.13,-396.1 367.63,-406.1 374.63,-406.1"/>
</g>
<!-- Consult the Terraform docs and other random sources -->
<g id="node5" class="node">
<title>Consult the Terraform docs and other random sources</title>
<ellipse fill="none" stroke="black" cx="202.13" cy="-18" rx="202.26" ry="18"/>
<text text-anchor="middle" x="202.13" y="-14.3" font-family="Times,serif" font-size="14.00">Consult the Terraform docs and other random sources</text>
</g>
<!-- Write some stuff&#45;&gt;Consult the Terraform docs and other random sources -->
<g id="edge4" class="edge">
<title>Write some stuff&#45;&gt;Consult the Terraform docs and other random sources</title>
<path fill="none" stroke="black" d="M310.02,-368.73C279.39,-361.56 244.14,-348.31 221.13,-324 192.62,-293.89 193.13,-276.47 193.13,-235 193.13,-235 193.13,-235 193.13,-161 193.13,-121 193.13,-74.65 195.42,-46.08"/>
<polygon fill="black" stroke="black" points="198.91,-46.35 196.42,-36.05 191.95,-45.65 198.91,-46.35"/>
</g>
<!-- run &#39;terraform plan&#39; -->
<g id="node6" class="node">
<title>run &#39;terraform plan&#39;</title>
<ellipse fill="none" stroke="black" cx="318.13" cy="-306" rx="79.09" ry="18"/>
<text text-anchor="middle" x="318.13" y="-302.3" font-family="Times,serif" font-size="14.00">run &#39;terraform plan&#39;</text>
</g>
<!-- Write some stuff&#45;&gt;run &#39;terraform plan&#39; -->
<g id="edge6" class="edge">
<title>Write some stuff&#45;&gt;run &#39;terraform plan&#39;</title>
<path fill="none" stroke="black" d="M358.3,-360.05C351.92,-351.63 344.09,-341.28 337.04,-331.97"/>
<polygon fill="black" stroke="black" points="339.67,-329.65 330.84,-323.79 334.09,-333.87 339.67,-329.65"/>
</g>
<!-- main.tf, or file X gets too big, split into multiple files -->
<g id="node8" class="node">
<title>main.tf, or file X gets too big, split into multiple files</title>
<ellipse fill="none" stroke="black" cx="654.13" cy="-306" rx="201.46" ry="18"/>
<text text-anchor="middle" x="654.13" y="-302.3" font-family="Times,serif" font-size="14.00">main.tf, or file X gets too big, split into multiple files</text>
</g>
<!-- Write some stuff&#45;&gt;main.tf, or file X gets too big, split into multiple files -->
<g id="edge9" class="edge">
<title>Write some stuff&#45;&gt;main.tf, or file X gets too big, split into multiple files</title>
<path fill="none" stroke="black" d="M417.36,-364.24C459.77,-353.35 523.39,-337.56 574.03,-325.32"/>
<polygon fill="black" stroke="black" points="575.08,-328.67 583.98,-322.93 573.44,-321.87 575.08,-328.67"/>
</g>
<!-- Consult the Terraform docs and other random sources&#45;&gt;Write some stuff -->
<g id="edge5" class="edge">
<title>Consult the Terraform docs and other random sources&#45;&gt;Write some stuff</title>
<path fill="none" stroke="black" d="M207.84,-36.05C211.13,-62.71 211.13,-115.89 211.13,-161 211.13,-235 211.13,-235 211.13,-235 211.13,-276.47 210.62,-293.89 239.13,-324 257.3,-343.2 283.11,-355.49 307.13,-363.35"/>
<polygon fill="black" stroke="black" points="306.34,-366.77 316.93,-366.35 308.39,-360.08 306.34,-366.77"/>
</g>
<!-- fail and debug -->
<g id="node7" class="node">
<title>fail and debug</title>
<ellipse fill="none" stroke="black" cx="309.13" cy="-90" rx="61.99" ry="18"/>
<text text-anchor="middle" x="309.13" y="-86.3" font-family="Times,serif" font-size="14.00">fail and debug</text>
</g>
<!-- run &#39;terraform plan&#39;&#45;&gt;fail and debug -->
<g id="edge7" class="edge">
<title>run &#39;terraform plan&#39;&#45;&gt;fail and debug</title>
<path fill="none" stroke="black" d="M317.41,-287.85C315.85,-250.83 312.17,-163.18 310.28,-118.39"/>
<polygon fill="black" stroke="black" points="313.77,-118.08 309.86,-108.23 306.78,-118.37 313.77,-118.08"/>
</g>
<!-- Hey! Plan seems somewhat fine! -->
<g id="node9" class="node">
<title>Hey! Plan seems somewhat fine!</title>
<ellipse fill="none" stroke="black" cx="660.13" cy="-234" rx="128.08" ry="18"/>
<text text-anchor="middle" x="660.13" y="-230.3" font-family="Times,serif" font-size="14.00">Hey! Plan seems somewhat fine!</text>
</g>
<!-- run &#39;terraform plan&#39;&#45;&gt;Hey! Plan seems somewhat fine! -->
<g id="edge12" class="edge">
<title>run &#39;terraform plan&#39;&#45;&gt;Hey! Plan seems somewhat fine!</title>
<path fill="none" stroke="black" d="M374.99,-293.36C431.24,-281.85 517.82,-264.13 580.82,-251.23"/>
<polygon fill="black" stroke="black" points="581.63,-254.64 590.72,-249.21 580.22,-247.78 581.63,-254.64"/>
</g>
<!-- fail and debug&#45;&gt;Write some stuff -->
<g id="edge8" class="edge">
<title>fail and debug&#45;&gt;Write some stuff</title>
<path fill="none" stroke="black" d="M320.83,-107.9C342.79,-140.76 389.45,-216.34 406.13,-288 409.76,-303.58 410.74,-308.68 406.13,-324 403.17,-333.88 397.7,-343.61 391.95,-351.99"/>
<polygon fill="black" stroke="black" points="389.04,-350.04 385.95,-360.17 394.68,-354.17 389.04,-350.04"/>
</g>
<!-- fail and debug&#45;&gt;Consult the Terraform docs and other random sources -->
<g id="edge11" class="edge">
<title>fail and debug&#45;&gt;Consult the Terraform docs and other random sources</title>
<path fill="none" stroke="black" d="M285.12,-73.29C270.77,-63.9 252.31,-51.82 236.44,-41.44"/>
<polygon fill="black" stroke="black" points="238.22,-38.43 227.93,-35.88 234.39,-44.28 238.22,-38.43"/>
</g>
<!-- main.tf, or file X gets too big, split into multiple files&#45;&gt;Write some stuff -->
<g id="edge10" class="edge">
<title>main.tf, or file X gets too big, split into multiple files&#45;&gt;Write some stuff</title>
<path fill="none" stroke="black" d="M594.45,-323.2C546.91,-335.29 480.68,-351.65 432.66,-363.14"/>
<polygon fill="black" stroke="black" points="431.62,-359.79 422.7,-365.52 433.24,-366.6 431.62,-359.79"/>
</g>
<!-- Run &#39;terraform apply&#39; -->
<g id="node10" class="node">
<title>Run &#39;terraform apply&#39;</title>
<ellipse fill="none" stroke="black" cx="738.13" cy="-162" rx="86.38" ry="18"/>
<text text-anchor="middle" x="738.13" y="-158.3" font-family="Times,serif" font-size="14.00">Run &#39;terraform apply&#39;</text>
</g>
<!-- Hey! Plan seems somewhat fine!&#45;&gt;Run &#39;terraform apply&#39; -->
<g id="edge13" class="edge">
<title>Hey! Plan seems somewhat fine!&#45;&gt;Run &#39;terraform apply&#39;</title>
<path fill="none" stroke="black" d="M679.01,-216.05C688.88,-207.2 701.12,-196.22 711.89,-186.55"/>
<polygon fill="black" stroke="black" points="714.32,-189.07 719.42,-179.79 709.64,-183.86 714.32,-189.07"/>
</g>
<!-- Run &#39;terraform apply&#39;&#45;&gt;fail and debug -->
<g id="edge14" class="edge">
<title>Run &#39;terraform apply&#39;&#45;&gt;fail and debug</title>
<path fill="none" stroke="black" d="M665.48,-152.15C592.92,-142.87 478.37,-126.99 380.13,-108 374.84,-106.98 369.35,-105.83 363.88,-104.62"/>
<polygon fill="black" stroke="black" points="364.6,-101.19 354.07,-102.39 363.05,-108.02 364.6,-101.19"/>
</g>
<!-- something easy was overlooked, but you need to wait an hour anyway due to DNS propagation -->
<g id="node11" class="node">
<title>something easy was overlooked, but you need to wait an hour anyway due to DNS propagation</title>
<ellipse fill="none" stroke="black" cx="738.13" cy="-90" rx="349.04" ry="18"/>
<text text-anchor="middle" x="738.13" y="-86.3" font-family="Times,serif" font-size="14.00">something easy was overlooked, but you need to wait an hour anyway due to DNS propagation</text>
</g>
<!-- Run &#39;terraform apply&#39;&#45;&gt;something easy was overlooked, but you need to wait an hour anyway due to DNS propagation -->
<g id="edge15" class="edge">
<title>Run &#39;terraform apply&#39;&#45;&gt;something easy was overlooked, but you need to wait an hour anyway due to DNS propagation</title>
<path fill="none" stroke="black" d="M738.13,-143.7C738.13,-135.98 738.13,-126.71 738.13,-118.11"/>
<polygon fill="black" stroke="black" points="741.63,-118.1 738.13,-108.1 734.63,-118.1 741.63,-118.1"/>
</g>
<!-- Success! -->
<g id="node13" class="node">
<title>Success!</title>
<ellipse fill="none" stroke="black" cx="1185.13" cy="-90" rx="41.69" ry="18"/>
<text text-anchor="middle" x="1185.13" y="-86.3" font-family="Times,serif" font-size="14.00">Success!</text>
</g>
<!-- Run &#39;terraform apply&#39;&#45;&gt;Success! -->
<g id="edge18" class="edge">
<title>Run &#39;terraform apply&#39;&#45;&gt;Success!</title>
<path fill="none" stroke="black" d="M816.3,-154.12C895.69,-146.27 1021.88,-131.39 1129.13,-108 1133.79,-106.98 1138.62,-105.77 1143.4,-104.46"/>
<polygon fill="black" stroke="black" points="1144.44,-107.81 1153.09,-101.69 1142.51,-101.08 1144.44,-107.81"/>
</g>
<!-- Staring at wall -->
<g id="node12" class="node">
<title>Staring at wall</title>
<ellipse fill="none" stroke="black" cx="926.13" cy="-18" rx="62.29" ry="18"/>
<text text-anchor="middle" x="926.13" y="-14.3" font-family="Times,serif" font-size="14.00">Staring at wall</text>
</g>
<!-- something easy was overlooked, but you need to wait an hour anyway due to DNS propagation&#45;&gt;Staring at wall -->
<g id="edge16" class="edge">
<title>something easy was overlooked, but you need to wait an hour anyway due to DNS propagation&#45;&gt;Staring at wall</title>
<path fill="none" stroke="black" d="M783.64,-72.05C812.83,-61.19 850.62,-47.12 879.94,-36.2"/>
<polygon fill="black" stroke="black" points="881.39,-39.39 889.54,-32.63 878.95,-32.83 881.39,-39.39"/>
</g>
<!-- Staring at wall&#45;&gt;Run &#39;terraform apply&#39; -->
<g id="edge17" class="edge">
<title>Staring at wall&#45;&gt;Run &#39;terraform apply&#39;</title>
<path fill="none" stroke="black" d="M980.03,-27.24C1042.91,-39.06 1133.78,-64.37 1096.13,-108 1062.96,-146.44 929,-157.47 834.72,-160.37"/>
<polygon fill="black" stroke="black" points="834.48,-156.88 824.58,-160.66 834.67,-163.88 834.48,-156.88"/>
</g>
</g>
</svg>
