<?xml version="1.0" encoding="UTF-8" standalone="no"?>
<!DOCTYPE svg PUBLIC "-//W3C//DTD SVG 1.1//EN"
 "http://www.w3.org/Graphics/SVG/1.1/DTD/svg11.dtd">
<!-- Generated by graphviz version 2.43.0 (0)
 -->
<!-- Title: whynotguide Pages: 1 -->
<svg width="657pt" height="282pt"
 viewBox="0.00 0.00 656.90 282.00" xmlns="http://www.w3.org/2000/svg" xmlns:xlink="http://www.w3.org/1999/xlink">
<g id="graph0" class="graph" transform="scale(1 1) rotate(0) translate(4 278)">
<title>whynotguide</title>
<polygon fill="white" stroke="transparent" points="-4,4 -4,-278 652.9,-278 652.9,4 -4,4"/>
<g id="clust1" class="cluster">
<title>cluster_aws</title>
<polygon fill="none" stroke="black" points="8,-80 8,-230 342,-230 342,-80 8,-80"/>
<text text-anchor="middle" x="175" y="-214.8" font-family="Times,serif" font-size="14.00">AWS</text>
</g>
<g id="clust2" class="cluster">
<title>cluster_aws_support</title>
<polygon fill="none" stroke="black" points="350,-8 350,-155 632,-155 632,-8 350,-8"/>
<text text-anchor="middle" x="491" y="-139.8" font-family="Times,serif" font-size="14.00">AWS Supporting services</text>
</g>
<!-- https://whynot.guide -->
<g id="node1" class="node">
<title>https://whynot.guide</title>
<ellipse fill="none" stroke="black" stroke-dasharray="5,2" cx="221" cy="-256" rx="83.39" ry="18"/>
<text text-anchor="middle" x="221" y="-252.3" font-family="Times,serif" font-size="14.00">https://whynot.guide</text>
</g>
<!-- CF -->
<g id="node2" class="node">
<title>CF</title>
<ellipse fill="none" stroke="black" cx="221" cy="-181" rx="113.18" ry="18"/>
<text text-anchor="middle" x="221" y="-177.3" font-family="Times,serif" font-size="14.00">CloudFront (CF) distribution</text>
</g>
<!-- https://whynot.guide&#45;&gt;CF -->
<g id="edge3" class="edge">
<title>https://whynot.guide&#45;&gt;CF</title>
<path fill="none" stroke="black" d="M221,-237.7C221,-229.25 221,-218.87 221,-209.37"/>
<polygon fill="black" stroke="black" points="224.5,-209.18 221,-199.18 217.5,-209.18 224.5,-209.18"/>
</g>
<!-- S3 -->
<g id="node3" class="node">
<title>S3</title>
<ellipse fill="none" stroke="black" cx="175" cy="-106" rx="159.47" ry="18"/>
<text text-anchor="middle" x="175" y="-102.3" font-family="Times,serif" font-size="14.00">AWS Simple Storage Service (S3) bucket</text>
</g>
<!-- CF&#45;&gt;S3 -->
<g id="edge1" class="edge">
<title>CF&#45;&gt;S3</title>
<path fill="none" stroke="black" d="M210.33,-163.07C204.62,-154.01 197.48,-142.67 191.11,-132.57"/>
<polygon fill="black" stroke="black" points="194.06,-130.69 185.77,-124.09 188.14,-134.42 194.06,-130.69"/>
</g>
<!-- ACM -->
<g id="node4" class="node">
<title>ACM</title>
<ellipse fill="none" stroke="black" cx="491" cy="-106" rx="132.68" ry="18"/>
<text text-anchor="middle" x="491" y="-102.3" font-family="Times,serif" font-size="14.00">AWS Certificate Manager (ACM)</text>
</g>
<!-- CF&#45;&gt;ACM -->
<g id="edge4" class="edge">
<title>CF&#45;&gt;ACM</title>
<path fill="none" stroke="black" d="M293.4,-167.08C310.72,-163.56 329.1,-159.47 346,-155 380.48,-145.88 418.75,-133.09 447.32,-123.01"/>
</g>
<!-- R53 -->
<g id="node5" class="node">
<title>R53</title>
<ellipse fill="none" stroke="black" cx="515" cy="-34" rx="85.29" ry="18"/>
<text text-anchor="middle" x="515" y="-30.3" font-family="Times,serif" font-size="14.00">AWS Route53 (R53)</text>
</g>
<!-- CF&#45;&gt;R53 -->
<g id="edge5" class="edge">
<title>CF&#45;&gt;R53</title>
<path fill="none" stroke="black" d="M334.32,-180.92C449.19,-180.64 612.85,-176.41 633,-155 655.85,-130.73 651.91,-107.45 633,-80 621,-62.58 601.28,-51.89 581.36,-45.35"/>
</g>
<!-- ACM&#45;&gt;R53 -->
<g id="edge2" class="edge">
<title>ACM&#45;&gt;R53</title>
<path fill="none" stroke="black" d="M496.93,-87.7C500.65,-76.85 505.43,-62.92 509.14,-52.1"/>
</g>
</g>
</svg>
