<?xml version="1.0" encoding="UTF-8" standalone="no"?>
<!DOCTYPE svg PUBLIC "-//W3C//DTD SVG 1.1//EN"
 "http://www.w3.org/Graphics/SVG/1.1/DTD/svg11.dtd">
<!-- Generated by graphviz version 2.43.0 (0)
 -->
<!-- Title: whynotguide Pages: 1 -->
<svg width="652pt" height="282pt"
 viewBox="0.00 0.00 652.00 282.00" xmlns="http://www.w3.org/2000/svg" xmlns:xlink="http://www.w3.org/1999/xlink">
<g id="graph0" class="graph" transform="scale(1 1) rotate(0) translate(4 278)">
<title>whynotguide</title>
<polygon fill="white" stroke="transparent" points="-4,4 -4,-278 648,-278 648,4 -4,4"/>
<g id="clust1" class="cluster">
<title>cluster_aws</title>
<polygon fill="none" stroke="black" points="8,-80 8,-230 346,-230 346,-80 8,-80"/>
<text text-anchor="middle" x="177" y="-214.8" font-family="Times,serif" font-size="14.00">AWS</text>
</g>
<g id="clust2" class="cluster">
<title>cluster_aws_support</title>
<polygon fill="none" stroke="black" points="354,-8 354,-155 636,-155 636,-8 354,-8"/>
<text text-anchor="middle" x="495" y="-139.8" font-family="Times,serif" font-size="14.00">AWS Supporting services</text>
</g>
<!-- https://whynot.guide -->
<g id="node1" class="node">
<title>https://whynot.guide</title>
<ellipse fill="none" stroke="black" stroke-dasharray="5,2" cx="200" cy="-256" rx="83.39" ry="18"/>
<text text-anchor="middle" x="200" y="-252.3" font-family="Times,serif" font-size="14.00">https://whynot.guide</text>
</g>
<!-- CF -->
<g id="node2" class="node">
<title>CF</title>
<ellipse fill="none" stroke="black" cx="200" cy="-181" rx="115.08" ry="18"/>
<text text-anchor="middle" x="200" y="-177.3" font-family="Times,serif" font-size="14.00">CloudFront (CF) Distribution</text>
</g>
<!-- https://whynot.guide&#45;&gt;CF -->
<g id="edge3" class="edge">
<title>https://whynot.guide&#45;&gt;CF</title>
<path fill="none" stroke="black" d="M200,-237.7C200,-229.25 200,-218.87 200,-209.37"/>
<polygon fill="black" stroke="black" points="203.5,-209.18 200,-199.18 196.5,-209.18 203.5,-209.18"/>
</g>
<!-- S3 -->
<g id="node3" class="node">
<title>S3</title>
<ellipse fill="none" stroke="black" cx="177" cy="-106" rx="161.37" ry="18"/>
<text text-anchor="middle" x="177" y="-102.3" font-family="Times,serif" font-size="14.00">AWS Simple Storage Service (S3) Bucket</text>
</g>
<!-- CF&#45;&gt;S3 -->
<g id="edge1" class="edge">
<title>CF&#45;&gt;S3</title>
<path fill="none" stroke="black" d="M194.55,-162.7C191.83,-154.06 188.48,-143.42 185.43,-133.76"/>
<polygon fill="black" stroke="black" points="188.75,-132.66 182.41,-124.18 182.08,-134.77 188.75,-132.66"/>
</g>
<!-- ACM -->
<g id="node4" class="node">
<title>ACM</title>
<ellipse fill="none" stroke="black" cx="495" cy="-106" rx="132.68" ry="18"/>
<text text-anchor="middle" x="495" y="-102.3" font-family="Times,serif" font-size="14.00">AWS Certificate Manager (ACM)</text>
</g>
<!-- CF&#45;&gt;ACM -->
<g id="edge4" class="edge">
<title>CF&#45;&gt;ACM</title>
<path fill="none" stroke="black" d="M282.99,-168.52C304.92,-164.85 328.47,-160.32 350,-155 385.01,-146.34 423.74,-133.34 452.37,-123.05"/>
</g>
<!-- R53 -->
<g id="node5" class="node">
<title>R53</title>
<ellipse fill="none" stroke="black" cx="495" cy="-34" rx="85.29" ry="18"/>
<text text-anchor="middle" x="495" y="-30.3" font-family="Times,serif" font-size="14.00">AWS Route53 (R53)</text>
</g>
<!-- ACM&#45;&gt;R53 -->
<g id="edge2" class="edge">
<title>ACM&#45;&gt;R53</title>
<path fill="none" stroke="black" d="M495,-87.7C495,-76.85 495,-62.92 495,-52.1"/>
</g>
</g>
</svg>
